
  <svg xmlns="http://www.w3.org/2000/svg" width="800" height="420" viewBox="0 0 800 420" fill="none">
    <style>
      @keyframes neon-glow { 0%, 100% { opacity: 0.4; stroke-width: 4; } 50% { opacity: 1; stroke-width: 7; } }
      .title { font: 700 18px 'Segoe UI', Arial; fill: #7aa2f7; }
      .label { font: 600 12px 'Segoe UI', Arial; fill: #7aa2f7; }
      .stat { font: 400 13px 'Segoe UI', Arial; fill: #a9b1d6; }
      .date-sub { font: 500 10px 'Segoe UI', Arial; fill: #565f89; }
      .percent { font: 600 11px 'Segoe UI', Arial; fill: #9ece6a; }
      .grade-text { font: 800 38px Arial; fill: #ff79c6; }
      .streak-val { font: 800 42px 'Segoe UI', Arial; fill: #bb9af7; }
      .sparkle { animation: neon-glow 2s infinite ease-in-out; }
    </style>
    
    <rect width="800" height="420" rx="20" fill="#1a1b26"/>
    
    <g transform="translate(50, 50)">
      <circle cx="60" cy="60" r="55" stroke="#444b6a" stroke-width="2" fill="none" opacity="0.3"/>
      <circle cx="60" cy="60" r="55" stroke="#7aa2f7" stroke-width="5" fill="none" stroke-dasharray="345" stroke-dashoffset="80" stroke-linecap="round" transform="rotate(-90 60 60)"/>
      <text x="60" y="72" text-anchor="middle" class="streak-val">176</text>
      <text x="60" y="135" text-anchor="middle" class="label">CURRENT STREAK</text>
      <text x="60" y="152" text-anchor="middle" class="date-sub">Nov 4 - Apr 28</text>
    </g>

    <g transform="translate(230, 55)">
      <text x="0" y="0" class="title">Activity Impact</text>
      <text x="0" y="32" class="stat">Total Contributions: 1539</text>
      <text x="0" y="54" class="stat">Total Commits: 1305</text>
      <text x="0" y="76" class="stat">Stars Collected: 119 ★</text>
      <text x="0" y="110" class="label" style="fill:#bb9af7">Longest Streak: 176 Days</text>
      <text x="0" y="125" class="date-sub">Nov 4 - Present</text>
    </g>

    <g transform="translate(435, 55)">
      <circle cx="50" cy="50" r="46" stroke="#444b6a" stroke-width="2" fill="none" opacity="0.3"/>
      <circle cx="50" cy="50" r="46" stroke="#ff79c6" stroke-width="5" fill="none" class="sparkle" stroke-dasharray="200" stroke-dashoffset="40" stroke-linecap="round"/>
      <text x="50" y="64" text-anchor="middle" class="grade-text">A+</text>
      <text x="50" y="120" text-anchor="middle" class="label" style="fill:#ff79c6">DEV RANK</text>
    </g>

    <g transform="translate(580, 55)">
      <text x="0" y="0" class="title">Top Stack</text>
      
          <text x="0" y="30" class="stat">HTML</text>
          <rect x="85" y="21" width="100" height="6" rx="3" fill="#444b6a"/>
          <rect x="85" y="21" width="54.50000000000001" height="6" rx="3" fill="#e34c26"/>
          <text x="190" y="30" class="percent">54.5%</text>
        
          <text x="0" y="52" class="stat">JavaScript</text>
          <rect x="85" y="43" width="100" height="6" rx="3" fill="#444b6a"/>
          <rect x="85" y="43" width="18.9" height="6" rx="3" fill="#f1e05a"/>
          <text x="190" y="52" class="percent">18.9%</text>
        
          <text x="0" y="74" class="stat">CSS</text>
          <rect x="85" y="65" width="100" height="6" rx="3" fill="#444b6a"/>
          <rect x="85" y="65" width="15.6" height="6" rx="3" fill="#563d7c"/>
          <text x="190" y="74" class="percent">15.6%</text>
        
          <text x="0" y="96" class="stat">Python</text>
          <rect x="85" y="87" width="100" height="6" rx="3" fill="#444b6a"/>
          <rect x="85" y="87" width="9.9" height="6" rx="3" fill="#3572A5"/>
          <text x="190" y="96" class="percent">9.9%</text>
        
          <text x="0" y="118" class="stat">C++</text>
          <rect x="85" y="109" width="100" height="6" rx="3" fill="#444b6a"/>
          <rect x="85" y="109" width="2" height="6" rx="3" fill="#f34b7d"/>
          <text x="190" y="118" class="percent">0.7%</text>
        
          <text x="0" y="140" class="stat">C</text>
          <rect x="85" y="131" width="100" height="6" rx="3" fill="#444b6a"/>
          <rect x="85" y="131" width="2" height="6" rx="3" fill="#555555"/>
          <text x="190" y="140" class="percent">0.4%</text>
        
    </g>

    <g transform="translate(0, 20)">
      <text x="40" y="245" class="label" style="fill:#9ece6a">30-DAY MOMENTUM PULSE</text>
      <path d="M40,290 L64,326 L88,330 L112,326 L136,335.3333333333333 L160,330 L184,316.6666666666667 L208,340.6666666666667 L232,338 L256,347.3333333333333 L280,312.6666666666667 L304,346 L328,344.6666666666667 L352,318 L376,338 L400,338 L424,344.6666666666667 L448,334 L472,339.3333333333333 L496,327.3333333333333 L520,316.6666666666667 L544,339.3333333333333 L568,342 L592,342 L616,340.6666666666667 L640,344.6666666666667 L664,342 L688,328.6666666666667 L712,346 L736,338 L760,346 L760,350 L40,350 Z" fill="#9ece6a" fill-opacity="0.08" />
      <path d="M40,290 L64,326 L88,330 L112,326 L136,335.3333333333333 L160,330 L184,316.6666666666667 L208,340.6666666666667 L232,338 L256,347.3333333333333 L280,312.6666666666667 L304,346 L328,344.6666666666667 L352,318 L376,338 L400,338 L424,344.6666666666667 L448,334 L472,339.3333333333333 L496,327.3333333333333 L520,316.6666666666667 L544,339.3333333333333 L568,342 L592,342 L616,340.6666666666667 L640,344.6666666666667 L664,342 L688,328.6666666666667 L712,346 L736,338 L760,346" stroke="#9ece6a" stroke-width="2.5" fill="none" stroke-linecap="round" stroke-linejoin="round"/>
      <text x="40" y="375" class="date-sub" text-anchor="middle">29</text><text x="160" y="375" class="date-sub" text-anchor="middle">03</text><text x="280" y="375" class="date-sub" text-anchor="middle">08</text><text x="400" y="375" class="date-sub" text-anchor="middle">13</text><text x="520" y="375" class="date-sub" text-anchor="middle">18</text><text x="640" y="375" class="date-sub" text-anchor="middle">23</text><text x="760" y="375" class="date-sub" text-anchor="middle">28</text>
    </g>

    <text x="400" y="405" text-anchor="middle" font-family="Arial" font-weight="bold" font-size="10" fill="#4fd6be" letter-spacing="2" opacity="0.6">LOCAL-FIRST | ZERO-SERVER | PRIVACY-FOCUSED</text>
  </svg>