
  <svg xmlns="http://www.w3.org/2000/svg" width="800" height="420" viewBox="0 0 800 420" fill="none">
    <style>
      @keyframes neon-glow { 0%, 100% { opacity: 0.4; stroke-width: 4; } 50% { opacity: 1; stroke-width: 7; } }
      .title { font: 700 18px 'Segoe UI', Arial; fill: #7aa2f7; }
      .label { font: 600 12px 'Segoe UI', Arial; fill: #7aa2f7; }
      .stat { font: 400 13px 'Segoe UI', Arial; fill: #a9b1d6; }
      .date-sub { font: 500 10px 'Segoe UI', Arial; fill: #565f89; }
      .percent { font: 600 11px 'Segoe UI', Arial; fill: #9ece6a; }
      .grade-text { font: 800 38px Arial; fill: #ff79c6; }
      .streak-val { font: 800 42px 'Segoe UI', Arial; fill: #bb9af7; }
      .sparkle { animation: neon-glow 2s infinite ease-in-out; }
    </style>
    
    <rect width="800" height="420" rx="20" fill="#1a1b26"/>
    
    <g transform="translate(50, 50)">
      <circle cx="60" cy="60" r="55" stroke="#444b6a" stroke-width="2" fill="none" opacity="0.3"/>
      <circle cx="60" cy="60" r="55" stroke="#7aa2f7" stroke-width="5" fill="none" stroke-dasharray="345" stroke-dashoffset="80" stroke-linecap="round" transform="rotate(-90 60 60)"/>
      <text x="60" y="72" text-anchor="middle" class="streak-val">130</text>
      <text x="60" y="135" text-anchor="middle" class="label">CURRENT STREAK</text>
      <text x="60" y="152" text-anchor="middle" class="date-sub">Nov 4 - Mar 13</text>
    </g>

    <g transform="translate(230, 55)">
      <text x="0" y="0" class="title">Activity Impact</text>
      <text x="0" y="32" class="stat">Total Contributions: 1001</text>
      <text x="0" y="54" class="stat">Total Commits: 930</text>
      <text x="0" y="76" class="stat">Stars Collected: 105 ★</text>
      <text x="0" y="110" class="label" style="fill:#bb9af7">Longest Streak: 130 Days</text>
      <text x="0" y="125" class="date-sub">Nov 4 - Present</text>
    </g>

    <g transform="translate(435, 55)">
      <circle cx="50" cy="50" r="46" stroke="#444b6a" stroke-width="2" fill="none" opacity="0.3"/>
      <circle cx="50" cy="50" r="46" stroke="#ff79c6" stroke-width="5" fill="none" class="sparkle" stroke-dasharray="200" stroke-dashoffset="40" stroke-linecap="round"/>
      <text x="50" y="64" text-anchor="middle" class="grade-text">A+</text>
      <text x="50" y="120" text-anchor="middle" class="label" style="fill:#ff79c6">DEV RANK</text>
    </g>

    <g transform="translate(580, 55)">
      <text x="0" y="0" class="title">Top Stack</text>
      
          <text x="0" y="30" class="stat">HTML</text>
          <rect x="85" y="21" width="100" height="6" rx="3" fill="#444b6a"/>
          <rect x="85" y="21" width="34.3" height="6" rx="3" fill="#e34c26"/>
          <text x="190" y="30" class="percent">34.3%</text>
        
          <text x="0" y="52" class="stat">Python</text>
          <rect x="85" y="43" width="100" height="6" rx="3" fill="#444b6a"/>
          <rect x="85" y="43" width="32.5" height="6" rx="3" fill="#3572A5"/>
          <text x="190" y="52" class="percent">32.5%</text>
        
          <text x="0" y="74" class="stat">JavaScript</text>
          <rect x="85" y="65" width="100" height="6" rx="3" fill="#444b6a"/>
          <rect x="85" y="65" width="25.8" height="6" rx="3" fill="#f1e05a"/>
          <text x="190" y="74" class="percent">25.8%</text>
        
          <text x="0" y="96" class="stat">CSS</text>
          <rect x="85" y="87" width="100" height="6" rx="3" fill="#444b6a"/>
          <rect x="85" y="87" width="5" height="6" rx="3" fill="#563d7c"/>
          <text x="190" y="96" class="percent">5.0%</text>
        
          <text x="0" y="118" class="stat">C++</text>
          <rect x="85" y="109" width="100" height="6" rx="3" fill="#444b6a"/>
          <rect x="85" y="109" width="2" height="6" rx="3" fill="#f34b7d"/>
          <text x="190" y="118" class="percent">1.3%</text>
        
          <text x="0" y="140" class="stat">C</text>
          <rect x="85" y="131" width="100" height="6" rx="3" fill="#444b6a"/>
          <rect x="85" y="131" width="2" height="6" rx="3" fill="#555555"/>
          <text x="190" y="140" class="percent">1.1%</text>
        
    </g>

    <g transform="translate(0, 20)">
      <text x="40" y="245" class="label" style="fill:#9ece6a">30-DAY MOMENTUM PULSE</text>
      <path d="M40,331.7391304347826 L64,334.3478260869565 L88,339.5652173913044 L112,347.39130434782606 L136,347.39130434782606 L160,347.39130434782606 L184,331.7391304347826 L208,321.30434782608694 L232,339.5652173913044 L256,331.7391304347826 L280,342.17391304347825 L304,342.17391304347825 L328,334.3478260869565 L352,321.30434782608694 L376,329.1304347826087 L400,339.5652173913044 L424,331.7391304347826 L448,344.7826086956522 L472,336.95652173913044 L496,342.17391304347825 L520,321.30434782608694 L544,331.7391304347826 L568,344.7826086956522 L592,342.17391304347825 L616,331.7391304347826 L640,329.1304347826087 L664,326.52173913043475 L688,290 L712,300.4347826086956 L736,295.2173913043478 L760,305.6521739130435 L760,350 L40,350 Z" fill="#9ece6a" fill-opacity="0.08" />
      <path d="M40,331.7391304347826 L64,334.3478260869565 L88,339.5652173913044 L112,347.39130434782606 L136,347.39130434782606 L160,347.39130434782606 L184,331.7391304347826 L208,321.30434782608694 L232,339.5652173913044 L256,331.7391304347826 L280,342.17391304347825 L304,342.17391304347825 L328,334.3478260869565 L352,321.30434782608694 L376,329.1304347826087 L400,339.5652173913044 L424,331.7391304347826 L448,344.7826086956522 L472,336.95652173913044 L496,342.17391304347825 L520,321.30434782608694 L544,331.7391304347826 L568,344.7826086956522 L592,342.17391304347825 L616,331.7391304347826 L640,329.1304347826087 L664,326.52173913043475 L688,290 L712,300.4347826086956 L736,295.2173913043478 L760,305.6521739130435" stroke="#9ece6a" stroke-width="2.5" fill="none" stroke-linecap="round" stroke-linejoin="round"/>
      <text x="40" y="375" class="date-sub" text-anchor="middle">11</text><text x="160" y="375" class="date-sub" text-anchor="middle">16</text><text x="280" y="375" class="date-sub" text-anchor="middle">21</text><text x="400" y="375" class="date-sub" text-anchor="middle">26</text><text x="520" y="375" class="date-sub" text-anchor="middle">03</text><text x="640" y="375" class="date-sub" text-anchor="middle">08</text><text x="760" y="375" class="date-sub" text-anchor="middle">13</text>
    </g>

    <text x="400" y="405" text-anchor="middle" font-family="Arial" font-weight="bold" font-size="10" fill="#4fd6be" letter-spacing="2" opacity="0.6">LOCAL-FIRST | ZERO-SERVER | PRIVACY-FOCUSED</text>
  </svg>