
  <svg xmlns="http://www.w3.org/2000/svg" width="800" height="420" viewBox="0 0 800 420" fill="none">
    <style>
      @keyframes neon-glow { 0%, 100% { opacity: 0.4; stroke-width: 4; } 50% { opacity: 1; stroke-width: 7; } }
      .title { font: 700 18px 'Segoe UI', Arial; fill: #7aa2f7; }
      .label { font: 600 12px 'Segoe UI', Arial; fill: #7aa2f7; }
      .stat { font: 400 13px 'Segoe UI', Arial; fill: #a9b1d6; }
      .date-sub { font: 500 10px 'Segoe UI', Arial; fill: #565f89; }
      .percent { font: 600 11px 'Segoe UI', Arial; fill: #9ece6a; }
      .grade-text { font: 800 38px Arial; fill: #ff79c6; }
      .streak-val { font: 800 42px 'Segoe UI', Arial; fill: #bb9af7; }
      .sparkle { animation: neon-glow 2s infinite ease-in-out; }
    </style>
    
    <rect width="800" height="420" rx="20" fill="#1a1b26"/>
    
    <g transform="translate(50, 50)">
      <circle cx="60" cy="60" r="55" stroke="#444b6a" stroke-width="2" fill="none" opacity="0.3"/>
      <circle cx="60" cy="60" r="55" stroke="#7aa2f7" stroke-width="5" fill="none" stroke-dasharray="345" stroke-dashoffset="80" stroke-linecap="round" transform="rotate(-90 60 60)"/>
      <text x="60" y="72" text-anchor="middle" class="streak-val">153</text>
      <text x="60" y="135" text-anchor="middle" class="label">CURRENT STREAK</text>
      <text x="60" y="152" text-anchor="middle" class="date-sub">Nov 4 - Apr 5</text>
    </g>

    <g transform="translate(230, 55)">
      <text x="0" y="0" class="title">Activity Impact</text>
      <text x="0" y="32" class="stat">Total Contributions: 1317</text>
      <text x="0" y="54" class="stat">Total Commits: 1145</text>
      <text x="0" y="76" class="stat">Stars Collected: 117 ★</text>
      <text x="0" y="110" class="label" style="fill:#bb9af7">Longest Streak: 153 Days</text>
      <text x="0" y="125" class="date-sub">Nov 4 - Present</text>
    </g>

    <g transform="translate(435, 55)">
      <circle cx="50" cy="50" r="46" stroke="#444b6a" stroke-width="2" fill="none" opacity="0.3"/>
      <circle cx="50" cy="50" r="46" stroke="#ff79c6" stroke-width="5" fill="none" class="sparkle" stroke-dasharray="200" stroke-dashoffset="40" stroke-linecap="round"/>
      <text x="50" y="64" text-anchor="middle" class="grade-text">A+</text>
      <text x="50" y="120" text-anchor="middle" class="label" style="fill:#ff79c6">DEV RANK</text>
    </g>

    <g transform="translate(580, 55)">
      <text x="0" y="0" class="title">Top Stack</text>
      
          <text x="0" y="30" class="stat">HTML</text>
          <rect x="85" y="21" width="100" height="6" rx="3" fill="#444b6a"/>
          <rect x="85" y="21" width="59.5" height="6" rx="3" fill="#e34c26"/>
          <text x="190" y="30" class="percent">59.5%</text>
        
          <text x="0" y="52" class="stat">Python</text>
          <rect x="85" y="43" width="100" height="6" rx="3" fill="#444b6a"/>
          <rect x="85" y="43" width="18.5" height="6" rx="3" fill="#3572A5"/>
          <text x="190" y="52" class="percent">18.5%</text>
        
          <text x="0" y="74" class="stat">JavaScript</text>
          <rect x="85" y="65" width="100" height="6" rx="3" fill="#444b6a"/>
          <rect x="85" y="65" width="15.299999999999999" height="6" rx="3" fill="#f1e05a"/>
          <text x="190" y="74" class="percent">15.3%</text>
        
          <text x="0" y="96" class="stat">CSS</text>
          <rect x="85" y="87" width="100" height="6" rx="3" fill="#444b6a"/>
          <rect x="85" y="87" width="5.2" height="6" rx="3" fill="#563d7c"/>
          <text x="190" y="96" class="percent">5.2%</text>
        
          <text x="0" y="118" class="stat">C++</text>
          <rect x="85" y="109" width="100" height="6" rx="3" fill="#444b6a"/>
          <rect x="85" y="109" width="2" height="6" rx="3" fill="#f34b7d"/>
          <text x="190" y="118" class="percent">0.9%</text>
        
          <text x="0" y="140" class="stat">C</text>
          <rect x="85" y="131" width="100" height="6" rx="3" fill="#444b6a"/>
          <rect x="85" y="131" width="2" height="6" rx="3" fill="#555555"/>
          <text x="190" y="140" class="percent">0.7%</text>
        
    </g>

    <g transform="translate(0, 20)">
      <text x="40" y="245" class="label" style="fill:#9ece6a">30-DAY MOMENTUM PULSE</text>
      <path d="M40,346 L64,340.6666666666667 L88,339.3333333333333 L112,338 L136,319.3333333333333 L160,324.6666666666667 L184,322 L208,323.3333333333333 L232,340.6666666666667 L256,326 L280,336.6666666666667 L304,326 L328,342 L352,338 L376,342 L400,327.3333333333333 L424,334 L448,338 L472,338 L496,335.3333333333333 L520,346 L544,330 L568,338 L592,290 L616,326 L640,330 L664,326 L688,335.3333333333333 L712,330 L736,316.6666666666667 L760,340.6666666666667 L760,350 L40,350 Z" fill="#9ece6a" fill-opacity="0.08" />
      <path d="M40,346 L64,340.6666666666667 L88,339.3333333333333 L112,338 L136,319.3333333333333 L160,324.6666666666667 L184,322 L208,323.3333333333333 L232,340.6666666666667 L256,326 L280,336.6666666666667 L304,326 L328,342 L352,338 L376,342 L400,327.3333333333333 L424,334 L448,338 L472,338 L496,335.3333333333333 L520,346 L544,330 L568,338 L592,290 L616,326 L640,330 L664,326 L688,335.3333333333333 L712,330 L736,316.6666666666667 L760,340.6666666666667" stroke="#9ece6a" stroke-width="2.5" fill="none" stroke-linecap="round" stroke-linejoin="round"/>
      <text x="40" y="375" class="date-sub" text-anchor="middle">06</text><text x="160" y="375" class="date-sub" text-anchor="middle">11</text><text x="280" y="375" class="date-sub" text-anchor="middle">16</text><text x="400" y="375" class="date-sub" text-anchor="middle">21</text><text x="520" y="375" class="date-sub" text-anchor="middle">26</text><text x="640" y="375" class="date-sub" text-anchor="middle">31</text><text x="760" y="375" class="date-sub" text-anchor="middle">05</text>
    </g>

    <text x="400" y="405" text-anchor="middle" font-family="Arial" font-weight="bold" font-size="10" fill="#4fd6be" letter-spacing="2" opacity="0.6">LOCAL-FIRST | ZERO-SERVER | PRIVACY-FOCUSED</text>
  </svg>